<?xml version="1.0" encoding="UTF-8"?>
<svg version="1.1" xmlns="http://www.w3.org/2000/svg" width="4096" height="4096">
<path d="M0 0 C45.87 0 91.74 0 139 0 C139 399.3 139 798.6 139 1210 C93.13 1210 47.26 1210 0 1210 C-0.33 1173.04 -0.66 1136.08 -1 1098 C-4.96 1101.63 -8.92 1105.26 -13 1109 C-23.26968423 1118.21878442 -33.9419557 1126.74835331 -45 1135 C-46.27087372 1135.95827978 -47.5417084 1136.91661133 -48.8125 1137.875 C-65.3724369 1150.28128936 -83.03835698 1160.76347631 -101 1171 C-101.6820752 1171.3928418 -102.36415039 1171.78568359 -103.06689453 1172.19042969 C-165.28896128 1207.84826339 -239.85191768 1224.45057149 -311 1226 C-312.30066406 1226.02964844 -313.60132813 1226.05929687 -314.94140625 1226.08984375 C-318.63054277 1226.12694121 -322.31220245 1226.0867618 -326 1226 C-326.84981445 1225.98211426 -327.69962891 1225.96422852 -328.57519531 1225.94580078 C-375.56182545 1224.83861669 -421.4025655 1216.787242 -466 1202 C-467.52971436 1201.49412354 -467.52971436 1201.49412354 -469.09033203 1200.97802734 C-523.90212291 1182.60862327 -574.40293181 1152.84127548 -618 1115 C-618.7115625 1114.38898438 -619.423125 1113.77796875 -620.15625 1113.1484375 C-622.12049772 1111.44984624 -624.06319715 1109.72981629 -626 1108 C-627.22976563 1106.90945313 -627.22976563 1106.90945313 -628.484375 1105.796875 C-635.11687299 1099.82396244 -641.49126274 1093.61362728 -647.8125 1087.3125 C-649.01289917 1086.11898926 -649.01289917 1086.11898926 -650.23754883 1084.90136719 C-655.03131925 1080.09511689 -659.58705896 1075.15623033 -664 1070 C-664.96103944 1068.90519533 -665.92322607 1067.8113963 -666.88671875 1066.71875 C-673.80896807 1058.79435526 -680.24833173 1050.59805048 -686.45703125 1042.10498047 C-688.02268925 1039.96904641 -689.60430821 1037.84561629 -691.1875 1035.72265625 C-707.97021094 1013.05562429 -721.83872239 988.42016452 -734 963 C-734.37302246 962.22881836 -734.74604492 961.45763672 -735.13037109 960.66308594 C-775.19517348 877.3217424 -786.52214502 780.89958946 -751.734375 612.36328125 C-734.68935383 564.46266452 -710.05247892 519.50654379 -678 480 C-677.22011719 479.02675781 -676.44023438 478.05351563 -675.63671875 477.05078125 C-671.35540788 471.74905432 -666.93387727 466.6115784 -662.3359375 461.58203125 C-661.08014388 460.19393831 -659.82996623 458.80009624 -658.6171875 457.37426758 C-653.3608829 451.21856159 -647.68832915 445.50221059 -641.96777344 439.7824707 C-640.26205402 438.07456944 -638.56450973 436.35881955 -636.8671875 434.64257812 C-631.00851543 428.75399749 -625.05941239 423.22057206 -618.54443359 418.04785156 C-616.08436279 416.0678982 -613.73778301 414.00711574 -611.3984375 411.88671875 C-606.99298696 407.9319812 -602.37572181 404.34106414 -597.625 400.8125 C-596.76213379 400.16958008 -595.89926758 399.52666016 -595.01025391 398.86425781 C-524.60674327 346.75053594 -441.55230537 314.33776983 -354 308 C-353.31067383 307.94360352 -352.62134766 307.88720703 -351.91113281 307.82910156 C-248.71598494 299.43238515 -140.89560274 329.14211422 -46 397 C-45.40155273 397.44682129 -44.80310547 397.89364258 -44.18652344 398.35400391 C-33.19914249 406.57122174 -22.75135165 415.40159768 -12.609375 424.63671875 C-8.7645601 428.11892386 -4.87705601 431.55372799 -1 435 C-0.67 291.45 -0.34 147.9 0 0 Z M-529 530 C-529.56444824 530.50805176 -530.12889648 531.01610352 -530.71044922 531.53955078 C-540.30447287 540.21467956 -549.69013077 549.06600073 -558 559 C-558.45358887 559.53979492 -558.90717773 560.07958984 -559.37451172 560.63574219 C-613.71741795 625.55545567 -641.48343442 709.19380282 -634.25 793.875 C-627.68476221 862.16794181 -600.15418818 927.04420838 -554 978 C-553.4107373 978.65097656 -552.82147461 979.30195313 -552.21435547 979.97265625 C-544.20480335 988.76876767 -536.02140367 997.23016662 -527 1005 C-526.38463379 1005.53302734 -525.76926758 1006.06605469 -525.13525391 1006.61523438 C-508.37370591 1021.03748367 -490.16298756 1033.01682064 -471 1044 C-470.29198242 1044.40702148 -469.58396484 1044.81404297 -468.85449219 1045.23339844 C-400.31938236 1084.18641703 -314.27035867 1092.8989974 -238.5625 1072.6875 C-220.13683824 1067.56801455 -202.25886571 1061.24420693 -185 1053 C-184.19997559 1052.62117676 -183.39995117 1052.24235352 -182.57568359 1051.85205078 C-141.05874184 1032.07011543 -100.85283143 1001.87238377 -73 965 C-71.84951172 963.55753906 -71.84951172 963.55753906 -70.67578125 962.0859375 C-32.42799686 913.96726802 -8.99939793 854.22017231 -4 793 C-3.83371094 791.06253906 -3.83371094 791.06253906 -3.6640625 789.0859375 C0.31026641 735.48620432 -9.67765967 680.45838209 -33 632 C-33.48484863 630.98486328 -33.48484863 630.98486328 -33.97949219 629.94921875 C-36.23488901 625.25440268 -38.58040018 620.61221813 -41 616 C-41.50370117 615.03827881 -41.50370117 615.03827881 -42.01757812 614.05712891 C-59.0276171 581.9333314 -83.47127516 551.7363793 -111 528 C-111.61149902 527.47083984 -112.22299805 526.94167969 -112.85302734 526.39648438 C-128.94026488 512.5766826 -146.09338365 500.50699736 -164.67626953 490.27929688 C-166.20225766 489.43918574 -167.7242353 488.59174015 -169.24169922 487.73632812 C-258.32274984 437.57076393 -369.1438784 438.54721238 -529 530 Z " fill="#000000" transform="translate(1025,1435)"/>
<path d="M0 0 C1.71894736 1.33438374 3.45064673 2.64981109 5.18847656 3.95947266 C15.63510452 11.85539515 25.58837955 20.28856253 35.26269531 29.11181641 C38.73099081 32.24029446 42.25927271 35.30169273 45.77441406 38.37744141 C46.10441406 0.42744141 46.43441406 -37.52255859 46.77441406 -76.62255859 C92.64441406 -76.62255859 138.51441406 -76.62255859 185.77441406 -76.62255859 C185.77441406 217.07744141 185.77441406 510.77744141 185.77441406 813.37744141 C139.90441406 813.37744141 94.03441406 813.37744141 46.77441406 813.37744141 C46.44441406 776.41744141 46.11441406 739.45744141 45.77441406 701.37744141 C38.10817447 708.27535276 38.10817447 708.27535276 30.52441406 715.25244141 C24.80244553 720.45350244 18.80059876 725.20901321 12.67089844 729.91357422 C10.75126646 731.39530868 8.84800212 732.89623738 6.94628906 734.40087891 C-63.09477419 789.42762427 -147.86592868 819.80937461 -265.22558594 829.37744141 C-266.35786621 829.3906543 -267.49014648 829.40386719 -268.65673828 829.41748047 C-278.2019112 829.47533762 -287.69673788 829.15481657 -297.22558594 828.62744141 C-297.99916443 828.58487213 -298.77274292 828.54230286 -299.56976318 828.4984436 C-355.62554993 825.32219241 -411.29131474 812.17129154 -462.22558594 788.37744141 C-463.2163916 787.92433594 -464.20719727 787.47123047 -465.22802734 787.00439453 C-481.14169098 779.72072742 -496.27527991 771.46612514 -511.22558594 762.37744141 C-512.00820801 761.90532227 -512.79083008 761.43320313 -513.59716797 760.94677734 C-523.12879352 755.18327161 -532.26392007 748.98850639 -541.22558594 742.37744141 C-541.87027832 741.9054834 -542.5149707 741.43352539 -543.17919922 740.94726562 C-555.24236262 732.10483557 -566.66004727 722.72446769 -577.71386719 712.64306641 C-579.0988376 711.39379294 -580.49035249 710.15123943 -581.90844727 708.93969727 C-587.47097824 704.17272359 -592.6779358 699.07828634 -597.84399414 693.8894043 C-599.28583815 692.44219755 -600.73295709 691.00042115 -602.18066406 689.55908203 C-607.40887396 684.33490149 -612.4327632 679.00346249 -617.22558594 673.37744141 C-618.15081806 672.32892994 -619.07782168 671.28197825 -620.00683594 670.23681641 C-628.66382714 660.38395982 -636.48069694 649.95448006 -644.22558594 639.37744141 C-644.75152344 638.66749023 -645.27746094 637.95753906 -645.81933594 637.22607422 C-711.26554045 548.72883023 -737.82955867 436.60558447 -725.98277283 299.34736633 C-724.00309174 286.22382475 -721.37712636 273.26975522 -718.22558594 260.37744141 C-717.96551758 259.30558594 -717.70544922 258.23373047 -717.4375 257.12939453 C-702.35046215 195.93178934 -674.14232021 137.94753419 -635.22558594 88.37744141 C-634.525625 87.47767578 -633.82566406 86.57791016 -633.10449219 85.65087891 C-621.06034159 70.38364575 -608.06337526 56.027818 -594.31884766 42.28540039 C-592.72104701 40.68539622 -591.13147043 39.07750526 -589.54199219 37.46923828 C-583.87609085 31.77266738 -578.09288645 26.46053841 -571.79589844 21.45141602 C-569.33113071 19.46260505 -566.97741236 17.39527742 -564.63183594 15.26806641 C-560.18996946 11.27985414 -555.52112844 7.6779873 -550.72558594 4.12744141 C-549.85611328 3.48121826 -548.98664063 2.83499512 -548.09082031 2.16918945 C-545.47431003 0.23137827 -542.85131361 -1.69726097 -540.22558594 -3.62255859 C-539.48179687 -4.17024902 -538.73800781 -4.71793945 -537.97167969 -5.28222656 C-526.81292072 -13.46377521 -515.20753188 -20.71054408 -503.22558594 -27.62255859 C-502.48228027 -28.0527832 -501.73897461 -28.48300781 -500.97314453 -28.92626953 C-441.72585282 -63.02906921 -375.45080575 -83.68384524 -307.22558594 -88.62255859 C-306.53625977 -88.67895508 -305.84693359 -88.73535156 -305.13671875 -88.79345703 C-201.95496744 -97.1890834 -91.14747014 -67.67612111 0 0 Z M-409.22558594 84.37744141 C-410.11777832 84.80863281 -411.0099707 85.23982422 -411.92919922 85.68408203 C-432.377748 95.65341811 -451.62561309 107.94258629 -469.22558594 122.37744141 C-469.75120117 122.80831055 -470.27681641 123.23917969 -470.81835938 123.68310547 C-485.54586419 135.81215176 -500.09160099 148.62556583 -511.99121094 163.58447266 C-514.28032465 166.44586479 -516.65408619 169.21984297 -519.03808594 172.00244141 C-570.70964577 234.1360945 -593.93928898 317.39708351 -587.40307617 397.34570312 C-580.97102095 466.19235711 -553.13108953 530.84523936 -506.44824219 581.93212891 C-505.02009178 583.50334535 -503.60950026 585.09080377 -502.22167969 586.69775391 C-491.68546971 598.81339574 -479.66801443 609.4568308 -466.87402344 619.11865234 C-465.27476898 620.33988397 -463.70272717 621.59649754 -462.13183594 622.85400391 C-400.23538774 672.08981497 -316.70576294 692.74750972 -238.72949219 684.77978516 C-203.12522462 680.69144674 -168.46047328 671.0931951 -136.22558594 655.37744141 C-135.24831543 654.90177734 -134.27104492 654.42611328 -133.26416016 653.93603516 C-113.64855866 644.28709641 -95.38933344 632.92911667 -78.22558594 619.37744141 C-77.32066406 618.66458984 -76.41574219 617.95173828 -75.48339844 617.21728516 C-57.69787705 602.93344574 -39.94228749 586.65047339 -26.22558594 568.37744141 C-25.09233184 566.92104227 -23.95812239 565.46538628 -22.82324219 564.01025391 C21.22073127 507.02253658 46.92793947 433.82052052 43.77441406 361.37744141 C43.7333252 360.40500488 43.69223633 359.43256836 43.64990234 358.43066406 C41.6113198 315.04728273 31.90928971 272.46965026 12.77441406 233.37744141 C12.31083496 232.42047363 11.84725586 231.46350586 11.36962891 230.47753906 C-3.46056071 200.12207064 -23.04241068 173.5981912 -45.97558594 148.93994141 C-46.57717529 148.28985107 -47.17876465 147.63976074 -47.79858398 146.9699707 C-51.48668869 143.04496437 -55.33924215 139.43208691 -59.42626953 135.92504883 C-61.55935648 134.09036251 -63.60691318 132.17257249 -65.66308594 130.25244141 C-77.25827094 119.8132181 -90.05668152 110.71420751 -103.22558594 102.37744141 C-103.80953125 102.00699707 -104.39347656 101.63655273 -104.99511719 101.25488281 C-190.06973433 47.75313495 -295.87105025 39.13391579 -409.22558594 84.37744141 Z " fill="#000000" transform="translate(1989.2255859375,1831.62255859375)"/>
<path d="M0 0 C47.19 0 94.38 0 143 0 C143 105.6 143 211.2 143 320 C227.48 320 311.96 320 399 320 C399 366.2 399 412.4 399 460 C314.52 460 230.04 460 143 460 C143.06147631 519.77055174 143.06147631 519.77055174 143.16015625 579.54101562 C143.17624577 587.62084904 143.19208889 595.70068288 143.20751953 603.78051758 C143.20946347 604.79303426 143.21140741 605.80555093 143.21341026 606.84874994 C143.24433476 623.14273445 143.26137852 639.43670492 143.27319422 655.73071323 C143.28565525 672.48331719 143.31326742 689.23584809 143.35461307 705.98840588 C143.37960757 716.30520257 143.39312763 726.6218779 143.39142957 736.93870529 C143.39139955 744.03692428 143.40623644 751.13502071 143.43216428 758.23319183 C143.44664815 762.31347536 143.45515577 766.39350769 143.44580269 770.4738121 C143.3460056 819.73713021 154.67196794 867.05398736 177 911 C177.42104004 911.82983398 177.84208008 912.65966797 178.27587891 913.51464844 C189.74222486 935.76388517 204.62218722 956.14351711 221 975 C221.70511719 975.81855469 222.41023438 976.63710937 223.13671875 977.48046875 C233.4939196 989.25808572 244.62236193 1000.36153495 257 1010 C258.16242577 1010.94904991 259.32243091 1011.90106959 260.48046875 1012.85546875 C268.97120906 1019.82248707 277.71403427 1026.13712514 287 1032 C287.57621094 1032.36657715 288.15242188 1032.7331543 288.74609375 1033.11083984 C310.74400575 1047.0091805 334.03776042 1057.74895735 358.625 1066.125 C360.34601929 1066.71885498 360.34601929 1066.71885498 362.10180664 1067.32470703 C374.30433889 1071.37744305 386.34389482 1073.96253476 399 1077 C399 1124.85 399 1172.7 399 1222 C367.28698225 1217.30177515 367.28698225 1217.30177515 358 1215.25 C356.85740723 1215.00032471 355.71481445 1214.75064941 354.53759766 1214.4934082 C341.83269245 1211.63206077 329.39637956 1207.97491608 317 1204 C315.93604004 1203.66129883 314.87208008 1203.32259766 313.77587891 1202.97363281 C272.39958178 1189.65174293 232.53319905 1170.08336672 197 1145 C196.28021973 1144.4937207 195.56043945 1143.98744141 194.81884766 1143.46582031 C185.6053993 1136.96062003 176.60361568 1130.30158482 168 1123 C166.95632631 1122.1294919 165.91202447 1121.25973651 164.8671875 1120.390625 C157.91924488 1114.5898215 151.18081446 1108.59853736 144.55322266 1102.43554688 C142.91358916 1100.92013585 141.26095577 1099.41994273 139.60546875 1097.921875 C134.28597866 1093.09271629 129.14866394 1088.30403922 124.53125 1082.78125 C122.97906979 1080.97565261 121.33902322 1079.3391951 119.625 1077.6875 C115.92953436 1074.05817245 112.72716588 1070.08801482 109.50390625 1066.0390625 C107.44287946 1063.53753545 105.33054779 1061.13159097 103.16015625 1058.7265625 C99.15247434 1054.23874266 95.46857364 1049.57327475 91.875 1044.75 C90.91339966 1043.46125977 90.91339966 1043.46125977 89.93237305 1042.14648438 C73.10102083 1019.37720446 58.71260482 995.27610067 46 970 C45.53207031 969.07880371 45.06414063 968.15760742 44.58203125 967.20849609 C20.64342994 919.84258713 6.83687521 867.61449984 1 815 C0.91057666 814.20662725 0.82115332 813.4132545 0.72902018 812.59584016 C-0.05529701 804.92668847 -0.13743213 797.32200132 -0.12025452 789.61763 C-0.1206914 788.18920488 -0.12156846 786.76077983 -0.12284368 785.3323552 C-0.12506561 781.43505625 -0.1210991 777.53778511 -0.11606562 773.6404897 C-0.11172804 769.4272831 -0.11320989 765.21407795 -0.1139679 761.00086975 C-0.11449104 753.71043339 -0.11136615 746.42000601 -0.10573006 739.12957191 C-0.09758664 728.58896047 -0.09499693 718.04835334 -0.09374207 707.50773909 C-0.09155601 690.40432686 -0.08490803 673.3009194 -0.07543945 656.19750977 C-0.06625379 639.58780949 -0.0591786 622.97811051 -0.05493164 606.3684082 C-0.05466892 605.34377168 -0.05440619 604.31913516 -0.05413551 603.26344905 C-0.05283043 598.12290553 -0.05156673 592.98236199 -0.05032361 587.84181845 C-0.03996489 545.22787472 -0.02153407 502.61393984 0 460 C-33.33 460 -66.66 460 -101 460 C-101 413.8 -101 367.6 -101 320 C-67.67 320 -34.34 320 0 320 C0 214.4 0 108.8 0 0 Z " fill="#000000" transform="translate(3218,1435)"/>
<path d="M0 0 C0 47.52 0 95.04 0 144 C-3.83903285 145.27967762 -7.49578698 146.43188774 -11.39453125 147.41015625 C-52.2205856 157.87022788 -90.15330172 174.68630758 -124 200 C-124.8981543 200.66491455 -124.8981543 200.66491455 -125.81445312 201.34326172 C-132.31093097 206.16525981 -138.54477929 211.20388031 -144.48828125 216.69921875 C-146.56336155 218.60003103 -148.66762549 220.44615284 -150.796875 222.28515625 C-161.47446924 231.60639059 -171.29172607 241.82360565 -180 253 C-180.9254593 254.12740834 -181.85404542 255.25225466 -182.78515625 256.375 C-197.61111532 274.35062804 -209.59150653 294.18301307 -220 315 C-144.43 315 -68.86 315 9 315 C9 361.2 9 407.4 9 455 C-75.48 455 -159.96 455 -247 455 C-247 702.5 -247 950 -247 1205 C-292.87 1205 -338.74 1205 -386 1205 C-386 957.5 -386 710 -386 455 C-428.57 455 -471.14 455 -515 455 C-515 408.8 -515 362.6 -515 315 C-468.47 315 -421.94 315 -374 315 C-373.34 312.03 -372.68 309.06 -372 306 C-370.54671037 301.45668976 -368.82902106 297.0173404 -367.125 292.5625 C-366.8845697 291.93194702 -366.6441394 291.30139404 -366.39642334 290.6517334 C-361.22549344 277.13924029 -355.36780273 263.99305294 -349 251 C-348.23864746 249.44635742 -348.23864746 249.44635742 -347.46191406 247.86132812 C-336.36959008 225.45273418 -323.57075001 204.02685374 -308.52929688 184.03955078 C-306.99679679 181.99572803 -305.48839351 179.93594101 -303.984375 177.87109375 C-294.32406244 164.68259846 -283.56998816 152.53752192 -272.45068359 140.56835938 C-270.86117322 138.84991195 -269.28382258 137.12074727 -267.70703125 135.390625 C-262.60351426 129.8112693 -257.56483453 124.34706059 -251.74609375 119.49609375 C-249.95056867 117.95764609 -248.32780988 116.32706273 -246.6875 114.625 C-243.03532376 110.91511443 -239.05157538 107.69509176 -234.99609375 104.4375 C-232.45765991 102.37233348 -229.97682883 100.25675816 -227.50830078 98.10913086 C-205.79964987 79.32578308 -180.94378843 64.04186176 -156 50 C-155.24831543 49.57380371 -154.49663086 49.14760742 -153.72216797 48.70849609 C-112.70827462 25.61338795 -66.34395173 10.77249785 -20.25 2.0625 C-19.1377002 1.85085205 -18.02540039 1.6392041 -16.87939453 1.42114258 C-15.30714111 1.13726685 -15.30714111 1.13726685 -13.703125 0.84765625 C-12.79208008 0.68273682 -11.88103516 0.51781738 -10.94238281 0.34790039 C-7.31832333 -0.08059984 -3.64930399 0 0 0 Z " fill="#000000" transform="translate(2780,1440)"/>
<path d="M0 0 C45.87 0 91.74 0 139 0 C139 293.7 139 587.4 139 890 C93.13 890 47.26 890 0 890 C0 596.3 0 302.6 0 0 Z " fill="#000000" transform="translate(3709,1755)"/>
<path d="M0 0 C45.87 0 91.74 0 139 0 C139 293.7 139 587.4 139 890 C93.13 890 47.26 890 0 890 C0 596.3 0 302.6 0 0 Z " fill="#000000" transform="translate(2884,1755)"/>
<path d="M0 0 C45.87 0 91.74 0 139 0 C139 47.85 139 95.7 139 145 C93.13 145 47.26 145 0 145 C0 97.15 0 49.3 0 0 Z " fill="#000000" transform="translate(3709,1435)"/>
<path d="M0 0 C45.87 0 91.74 0 139 0 C139 47.85 139 95.7 139 145 C93.13 145 47.26 145 0 145 C0 97.15 0 49.3 0 0 Z " fill="#000000" transform="translate(2884,1435)"/>
</svg>
